<svg width="18" height="14" viewBox="0 0 18 14" fill="none" xmlns="http://www.w3.org/2000/svg">
<path d="M6.37502 13.3748C6.22726 13.375 6.08091 13.346 5.94439 13.2894C5.80787 13.2329 5.68388 13.1499 5.57952 13.0453L0.329539 7.79575C0.118547 7.58477 8.6154e-06 7.29862 4.69606e-10 7.00024C-8.61446e-06 6.70186 0.118514 6.4157 0.329493 6.20471C0.540473 5.99372 0.826627 5.87518 1.12501 5.87517C1.42338 5.87516 1.70955 5.99368 1.92054 6.20466L6.37502 10.6588L16.0795 0.95472C16.2905 0.743741 16.5766 0.625214 16.875 0.625214C17.1734 0.625214 17.4595 0.743741 17.6705 0.954721C17.8815 1.1657 18 1.45185 18 1.75022C18 2.04859 17.8815 2.33474 17.6705 2.54572L7.17052 13.0453C7.06617 13.1499 6.94217 13.2329 6.80566 13.2894C6.66914 13.346 6.52279 13.375 6.37502 13.3748Z" fill="#EBE2E0"/>
</svg>
