<svg width="18" height="20" viewBox="0 0 18 20" fill="none" xmlns="http://www.w3.org/2000/svg">
<path d="M17.25 3.25H13.5004V2.5C13.4997 1.90347 13.2624 1.33156 12.8406 0.909754C12.4188 0.487944 11.8469 0.250674 11.2504 0.25H6.75037C6.15384 0.250674 5.58193 0.487944 5.16012 0.909754C4.73831 1.33156 4.50104 1.90347 4.50037 2.5V3.25H0.75C0.551088 3.25 0.360322 3.32902 0.21967 3.46967C0.0790178 3.61032 0 3.80109 0 4C0 4.19891 0.0790178 4.38967 0.21967 4.53033C0.360322 4.67098 0.551088 4.75 0.75 4.75H1.5V18.25C1.50045 18.6477 1.65864 19.0289 1.93984 19.3101C2.22105 19.5913 2.60231 19.7495 3 19.75H15C15.3977 19.7495 15.779 19.5913 16.0602 19.3101C16.3414 19.0289 16.4995 18.6477 16.5 18.25V4.75H17.25C17.4489 4.75 17.6397 4.67098 17.7803 4.53033C17.921 4.38967 18 4.19891 18 4C18 3.80109 17.921 3.61032 17.7803 3.46967C17.6397 3.32902 17.4489 3.25 17.25 3.25ZM6.00037 2.5C6.00059 2.30116 6.07968 2.11052 6.22029 1.96992C6.36089 1.82932 6.55152 1.75023 6.75037 1.75H11.2504C11.4492 1.75023 11.6398 1.82932 11.7804 1.96992C11.921 2.11052 12.0001 2.30116 12.0004 2.5V3.25H6.00037V2.5ZM15 18.25H3V4.75H15V18.25ZM7.50037 8.49999V14.5C7.50037 14.6989 7.42135 14.8897 7.2807 15.0303C7.14004 15.171 6.94928 15.25 6.75037 15.25C6.55145 15.25 6.36069 15.171 6.22004 15.0303C6.07938 14.8897 6.00037 14.6989 6.00037 14.5V8.49999C6.00037 8.30108 6.07938 8.11032 6.22004 7.96966C6.36069 7.82901 6.55145 7.74999 6.75037 7.74999C6.94928 7.74999 7.14004 7.82901 7.2807 7.96966C7.42135 8.11032 7.50037 8.30108 7.50037 8.49999ZM12.0004 8.49999V14.5C12.0004 14.6989 11.9213 14.8897 11.7807 15.0303C11.64 15.171 11.4493 15.25 11.2504 15.25C11.0515 15.25 10.8607 15.171 10.72 15.0303C10.5794 14.8897 10.5004 14.6989 10.5004 14.5V8.49999C10.5004 8.30108 10.5794 8.11032 10.72 7.96966C10.8607 7.82901 11.0515 7.74999 11.2504 7.74999C11.4493 7.74999 11.64 7.82901 11.7807 7.96966C11.9213 8.11032 12.0004 8.30108 12.0004 8.49999Z" fill="#07586A"/>
</svg>
