<svg width="28" height="28" viewBox="0 0 28 28" fill="none" xmlns="http://www.w3.org/2000/svg">
<circle cx="14" cy="14" r="6.66667" fill="#F25431"/>
<path d="M12.6667 4.66666L12.6667 6L15.3333 6L15.3333 4.66666L12.6667 4.66666ZM15.3333 2C15.3333 1.26362 14.7364 0.666664 14 0.666664C13.2636 0.666664 12.6667 1.26362 12.6667 2L15.3333 2ZM15.3333 4.66666L15.3333 2L12.6667 2L12.6667 4.66666L15.3333 4.66666Z" fill="#F25431"/>
<path d="M19.7165 6.29806L18.7811 7.24816L20.6813 9.11908L21.6167 8.16898L19.7165 6.29806ZM23.4876 6.26878C24.0043 5.74405 23.9977 4.89986 23.473 4.38322C22.9483 3.86658 22.1041 3.87313 21.5874 4.39786L23.4876 6.26878ZM21.6167 8.16898L23.4876 6.26878L21.5874 4.39786L19.7165 6.29806L21.6167 8.16898Z" fill="#F25431"/>
<path d="M8.16168 21.6095L9.10449 20.6667L7.21887 18.7811L6.27606 19.7239L8.16168 21.6095ZM4.39044 21.6095C3.86975 22.1302 3.86975 22.9744 4.39044 23.4951C4.91114 24.0158 5.75536 24.0158 6.27606 23.4951L4.39044 21.6095ZM6.27606 19.7239L4.39044 21.6095L6.27606 23.4951L8.16168 21.6095L6.27606 19.7239Z" fill="#F25431"/>
<path d="M23.3334 12.6667H22V15.3333H23.3334V12.6667ZM26 15.3333C26.7364 15.3333 27.3334 14.7364 27.3334 14C27.3334 13.2636 26.7364 12.6667 26 12.6667V15.3333ZM23.3334 15.3333H26V12.6667H23.3334V15.3333Z" fill="#F25431"/>
<path d="M4.66663 15.3333L5.99996 15.3333L5.99996 12.6667L4.66663 12.6667L4.66663 15.3333ZM1.99996 12.6667C1.26358 12.6667 0.666626 13.2636 0.666626 14C0.666626 14.7364 1.26358 15.3333 1.99996 15.3333L1.99996 12.6667ZM4.66663 12.6667L1.99996 12.6667L1.99996 15.3333L4.66663 15.3333L4.66663 12.6667Z" fill="#F25431"/>
<path d="M15.3333 23.3333L15.3333 22L12.6667 22L12.6667 23.3333L15.3333 23.3333ZM12.6667 26C12.6667 26.7364 13.2636 27.3333 14 27.3333C14.7364 27.3333 15.3333 26.7364 15.3333 26L12.6667 26ZM12.6667 23.3333L12.6667 26L15.3333 26L15.3333 23.3333L12.6667 23.3333Z" fill="#F25431"/>
<path d="M21.6094 19.7239L20.6666 18.7811L18.781 20.6667L19.7238 21.6095L21.6094 19.7239ZM21.6094 23.4951C22.1301 24.0158 22.9744 24.0158 23.4951 23.4951C24.0158 22.9744 24.0158 22.1302 23.4951 21.6095L21.6094 23.4951ZM19.7238 21.6095L21.6094 23.4951L23.4951 21.6095L21.6094 19.7239L19.7238 21.6095Z" fill="#F25431"/>
<path d="M6.27606 8.16177L7.21887 9.10457L9.10449 7.21896L8.16168 6.27615L6.27606 8.16177ZM6.27606 4.39053C5.75536 3.86983 4.91114 3.86983 4.39044 4.39053C3.86975 4.91123 3.86975 5.75545 4.39044 6.27615L6.27606 4.39053ZM8.16168 6.27615L6.27606 4.39053L4.39044 6.27615L6.27606 8.16177L8.16168 6.27615Z" fill="#F25431"/>
</svg>
